<svg width="19" height="19" viewBox="0 0 19 19" fill="none" xmlns="http://www.w3.org/2000/svg">
<g clip-path="url(#clip0_1213_45504)">
<path fill-rule="evenodd" clip-rule="evenodd" d="M9.5 18.355C10.6819 18.355 11.8522 18.1222 12.9442 17.6699C14.0361 17.2176 15.0282 16.5547 15.864 15.719C16.6997 14.8832 17.3626 13.8911 17.8149 12.7992C18.2672 11.7072 18.5 10.5369 18.5 9.35498C18.5 8.17308 18.2672 7.00276 17.8149 5.91083C17.3626 4.8189 16.6997 3.82675 15.864 2.99102C15.0282 2.15529 14.0361 1.49236 12.9442 1.04006C11.8522 0.587772 10.6819 0.35498 9.5 0.35498C7.11305 0.354981 4.82387 1.30319 3.13604 2.99102C1.44821 4.67885 0.5 6.96803 0.5 9.35498C0.5 11.7419 1.44821 14.0311 3.13604 15.719C4.82387 17.4068 7.11305 18.355 9.5 18.355ZM9.268 12.995L14.268 6.99498L12.732 5.71498L8.432 10.874L6.207 8.64798L4.793 10.062L7.793 13.062L8.567 13.836L9.268 12.995Z" fill="#0E0EAF"/>
</g>
<defs>
<clipPath id="clip0_1213_45504">
<rect width="18" height="18" fill="white" transform="translate(0.5 0.35498)"/>
</clipPath>
</defs>
</svg>
