<svg width="532" height="532" viewBox="0 0 532 532" fill="none" xmlns="http://www.w3.org/2000/svg">
<path d="M513.258 141.483C513.258 98.9994 513.258 77.7575 504.99 61.5308C497.717 47.2574 486.112 35.6528 471.839 28.3801C455.612 20.1122 434.37 20.1122 391.886 20.1122H179.487C137.003 20.1122 115.761 20.1122 99.5347 28.3801C85.2613 35.6528 73.6566 47.2574 66.3839 61.5308C58.116 77.7575 58.116 98.9994 58.116 141.483V278.026C58.116 320.51 58.116 341.752 66.3839 357.978C73.6566 372.252 85.2613 383.856 99.5347 391.129C115.761 399.397 137.003 399.397 179.487 399.397H344.255C360.034 399.397 367.924 399.397 375.471 400.946C382.166 402.32 388.645 404.592 394.731 407.702C401.592 411.207 407.753 416.136 420.075 425.993L480.392 474.247C490.913 482.664 496.174 486.872 500.601 486.877C504.451 486.881 508.094 485.131 510.496 482.122C513.258 478.662 513.258 471.925 513.258 458.451V141.483Z" fill="#DEDEDE"/>
<path d="M487.971 166.758C487.971 124.274 487.971 103.032 479.704 86.8054C472.431 72.532 460.826 60.9273 446.553 53.6547C430.326 45.3868 409.084 45.3868 366.6 45.3868H154.201C111.717 45.3868 90.4752 45.3868 74.2485 53.6547C59.9751 60.9273 48.3705 72.532 41.0978 86.8054C32.8299 103.032 32.8299 124.274 32.8299 166.758V303.3C32.8299 345.784 32.8299 367.026 41.0978 383.253C48.3705 397.526 59.9751 409.131 74.2485 416.404C90.4752 424.671 111.717 424.671 154.201 424.671H318.969C334.748 424.671 342.638 424.671 350.185 426.22C356.88 427.594 363.359 429.867 369.445 432.977C376.306 436.481 382.467 441.41 394.788 451.268L455.106 499.522C465.627 507.939 470.888 512.147 475.315 512.152C479.165 512.156 482.808 510.405 485.21 507.396C487.971 503.936 487.971 497.2 487.971 483.726V166.758Z" fill="#0E0EAF" stroke="white" stroke-width="1.15603" stroke-linecap="round" stroke-linejoin="round"/>
<path d="M203.756 235.478L237.632 269.354L305.385 201.602M367.491 235.478C367.491 297.843 316.935 348.399 254.57 348.399C192.206 348.399 141.649 297.843 141.649 235.478C141.649 173.114 192.206 122.557 254.57 122.557C316.935 122.557 367.491 173.114 367.491 235.478Z" stroke="#DEDEDE" stroke-width="24.22" stroke-linecap="round" stroke-linejoin="round"/>
</svg>
