<svg width="144" height="44" viewBox="0 0 144 44" fill="none" xmlns="http://www.w3.org/2000/svg">
<path d="M36.6612 13.1059C36.6612 10.0714 36.6612 8.55409 36.0706 7.39504C35.5512 6.37551 34.7223 5.54661 33.7027 5.02713C32.5437 4.43657 31.0264 4.43657 27.9918 4.43657H12.8204C9.78588 4.43657 8.26861 4.43657 7.10956 5.02713C6.09003 5.54661 5.26113 6.37551 4.74165 7.39504C4.15108 8.55409 4.15108 10.0714 4.15108 13.1059V22.859C4.15108 25.8935 4.15108 27.4108 4.74165 28.5699C5.26113 29.5894 6.09003 30.4183 7.10956 30.9378C8.26861 31.5283 9.78589 31.5283 12.8204 31.5283H24.5896C25.7167 31.5283 26.2802 31.5283 26.8193 31.639C27.2975 31.7371 27.7603 31.8994 28.195 32.1216C28.6851 32.3719 29.1251 32.724 30.0053 33.4281L34.3137 36.8748C35.0652 37.476 35.4409 37.7766 35.7572 37.7769C36.0322 37.7772 36.2923 37.6522 36.4639 37.4372C36.6612 37.1901 36.6612 36.7089 36.6612 35.7465V13.1059Z" fill="#DEDEDE"/>
<path d="M34.8552 14.9112C34.8552 11.8767 34.8552 10.3594 34.2646 9.20035C33.7452 8.18083 32.9163 7.35192 31.8967 6.83245C30.7377 6.24188 29.2204 6.24188 26.1858 6.24188H11.0144C7.97989 6.24188 6.46261 6.24188 5.30356 6.83245C4.28403 7.35192 3.45513 8.18083 2.93565 9.20035C2.34509 10.3594 2.34508 11.8767 2.34508 14.9112V24.6643C2.34508 27.6988 2.34509 29.2161 2.93565 30.3752C3.45513 31.3947 4.28403 32.2236 5.30356 32.7431C6.46261 33.3336 7.97989 33.3336 11.0144 33.3336H22.7836C23.9107 33.3336 24.4742 33.3336 25.0133 33.4443C25.4915 33.5424 25.9543 33.7048 26.389 33.9269C26.8791 34.1772 27.3191 34.5293 28.1993 35.2334L32.5077 38.6801C33.2592 39.2813 33.6349 39.5819 33.9512 39.5822C34.2262 39.5825 34.4863 39.4575 34.6579 39.2426C34.8552 38.9954 34.8552 38.5142 34.8552 37.5518V14.9112Z" fill="#0E0EAF" stroke="white" stroke-width="1.15603" stroke-linecap="round" stroke-linejoin="round"/>
<path d="M14.554 19.8199L16.9738 22.2396L21.8132 17.4001M26.2494 19.8199C26.2494 24.2745 22.6382 27.8856 18.1836 27.8856C13.729 27.8856 10.1179 24.2745 10.1179 19.8199C10.1179 15.3652 13.729 11.7541 18.1836 11.7541C22.6382 11.7541 26.2494 15.3652 26.2494 19.8199Z" stroke="#DEDEDE" stroke-width="1.73102" stroke-linecap="round" stroke-linejoin="round"/>
<path d="M61.7245 17.1016C61.4843 16.3478 61.1613 15.6727 60.7554 15.0763C60.3578 14.4716 59.8815 13.9581 59.3265 13.5356C58.7715 13.1049 58.1378 12.7777 57.4254 12.554C56.7214 12.3304 55.9469 12.2185 55.1019 12.2185C53.6689 12.2185 52.3767 12.5872 51.2253 13.3244C50.0739 14.0616 49.1627 15.1426 48.4918 16.5673C47.8291 17.9838 47.4978 19.7192 47.4978 21.7735C47.4978 23.8361 47.8332 25.5797 48.5042 27.0045C49.1752 28.4292 50.0946 29.5102 51.2626 30.2474C52.4305 30.9846 53.76 31.3533 55.251 31.3533C56.6344 31.3533 57.8396 31.0716 58.8668 30.5084C59.9022 29.9451 60.7015 29.1499 61.2648 28.1227C61.8364 27.0873 62.1221 25.8696 62.1221 24.4697L63.1162 24.6561H55.835V21.4877H65.8373V24.3828C65.8373 26.5199 65.3817 28.3754 64.4705 29.9492C63.5676 31.5148 62.3168 32.7242 60.7181 33.5774C59.1277 34.4306 57.3053 34.8572 55.251 34.8572C52.9483 34.8572 50.9271 34.327 49.1876 33.2667C47.4563 32.2065 46.1061 30.703 45.137 28.7564C44.1678 26.8015 43.6832 24.4822 43.6832 21.7983C43.6832 19.7689 43.9649 17.9465 44.5281 16.3313C45.0914 14.716 45.8825 13.3451 46.9013 12.2185C47.9285 11.0837 49.1337 10.2181 50.5171 9.62169C51.9087 9.017 53.4287 8.71466 55.0771 8.71466C56.4521 8.71466 57.7319 8.9176 58.9165 9.32349C60.1093 9.72938 61.1696 10.3051 62.0973 11.0506C63.0333 11.7961 63.8078 12.6824 64.4208 13.7096C65.0338 14.7284 65.4479 15.8591 65.6633 17.1016H61.7245ZM76.5389 34.8944C74.6586 34.8944 73.0392 34.4927 71.6807 33.6892C70.3305 32.8774 69.2868 31.7384 68.5495 30.2723C67.8206 28.7978 67.4561 27.0707 67.4561 25.091C67.4561 23.1361 67.8206 21.4131 68.5495 19.9221C69.2868 18.4311 70.3139 17.2673 71.631 16.4307C72.9563 15.594 74.5053 15.1757 76.278 15.1757C77.3548 15.1757 78.3985 15.3538 79.4091 15.71C80.4197 16.0662 81.3267 16.6253 82.1302 17.3874C82.9337 18.1495 83.5674 19.1393 84.0313 20.357C84.4951 21.5664 84.7271 23.0367 84.7271 24.7679V26.085H69.556V23.3018H81.0865C81.0865 22.3243 80.8877 21.4587 80.4901 20.7049C80.0925 19.9428 79.5334 19.3423 78.8127 18.9033C78.1003 18.4642 77.2637 18.2447 76.3028 18.2447C75.2591 18.2447 74.3479 18.5015 73.5693 19.0151C72.7989 19.5204 72.2025 20.1831 71.7801 21.0031C71.3659 21.8149 71.1588 22.6971 71.1588 23.6497V25.8241C71.1588 27.0997 71.3825 28.1849 71.8298 29.0795C72.2854 29.9741 72.9191 30.6575 73.7308 31.1296C74.5426 31.5935 75.4911 31.8254 76.5762 31.8254C77.2803 31.8254 77.9222 31.726 78.5021 31.5272C79.0819 31.3201 79.5831 31.0136 80.0055 30.6078C80.428 30.2019 80.751 29.7007 80.9747 29.1043L84.491 29.738C84.2094 30.7734 83.7041 31.6805 82.9751 32.4591C82.2545 33.2295 81.3474 33.83 80.254 34.2607C79.1689 34.6832 77.9305 34.8944 76.5389 34.8944ZM101.051 20.0837L97.6839 20.6801C97.5431 20.2493 97.3194 19.8393 97.0129 19.45C96.7147 19.0607 96.3088 18.7417 95.7953 18.4932C95.2817 18.2447 94.6397 18.1205 93.8694 18.1205C92.8174 18.1205 91.9393 18.3566 91.2352 18.8287C90.5312 19.2926 90.1791 19.8931 90.1791 20.6304C90.1791 21.2682 90.4152 21.7818 90.8873 22.1711C91.3595 22.5604 92.1216 22.8793 93.1736 23.1278L96.2053 23.8236C97.9614 24.2295 99.2702 24.8549 100.132 25.6998C100.993 26.5447 101.424 27.6423 101.424 28.9925C101.424 30.1356 101.093 31.1545 100.43 32.0491C99.7755 32.9354 98.8601 33.6312 97.6839 34.1365C96.5159 34.6418 95.1616 34.8944 93.6209 34.8944C91.4837 34.8944 89.7401 34.4388 88.3899 33.5277C87.0397 32.6082 86.2113 31.3036 85.9049 29.6137L89.4957 29.067C89.7194 30.0031 90.1791 30.7113 90.8749 31.1917C91.5707 31.6639 92.4778 31.9 93.596 31.9C94.8137 31.9 95.787 31.6473 96.5159 31.142C97.2449 30.6285 97.6093 30.0031 97.6093 29.2658C97.6093 28.6694 97.3857 28.1683 96.9384 27.7624C96.4994 27.3565 95.8243 27.05 94.9131 26.8429L91.6825 26.1347C89.9016 25.7288 88.5845 25.0827 87.7314 24.1964C86.8864 23.3101 86.464 22.1876 86.464 20.8292C86.464 19.7026 86.7788 18.7169 87.4083 17.872C88.0378 17.0271 88.9076 16.3685 90.0176 15.8964C91.1276 15.4159 92.3991 15.1757 93.8321 15.1757C95.8947 15.1757 97.5182 15.623 98.7028 16.5176C99.8873 17.404 100.67 18.5926 101.051 20.0837ZM112.318 15.4242V18.4063H101.893V15.4242H112.318ZM104.689 10.8518H108.404V28.9055C108.404 29.6262 108.512 30.1687 108.727 30.5332C108.943 30.8894 109.22 31.1338 109.56 31.2663C109.908 31.3905 110.285 31.4527 110.69 31.4527C110.989 31.4527 111.25 31.432 111.473 31.3905C111.697 31.3491 111.871 31.316 111.995 31.2911L112.666 34.3601C112.451 34.443 112.144 34.5258 111.747 34.6086C111.349 34.6998 110.852 34.7495 110.256 34.7577C109.278 34.7743 108.367 34.6004 107.522 34.2359C106.677 33.8714 105.994 33.3081 105.472 32.5461C104.95 31.784 104.689 30.8273 104.689 29.6759V10.8518ZM114.328 34.5092V15.4242H117.919V18.456H118.118C118.466 17.4288 119.079 16.6212 119.957 16.0331C120.843 15.4367 121.846 15.1385 122.964 15.1385C123.196 15.1385 123.469 15.1467 123.784 15.1633C124.107 15.1799 124.36 15.2006 124.542 15.2254V18.779C124.393 18.7376 124.128 18.692 123.747 18.6423C123.366 18.5844 122.985 18.5554 122.603 18.5554C121.725 18.5554 120.943 18.7417 120.255 19.1145C119.576 19.479 119.037 19.9884 118.64 20.6428C118.242 21.2889 118.043 22.0261 118.043 22.8545V34.5092H114.328ZM125.657 34.5092V15.4242H129.373V34.5092H125.657ZM127.534 12.4795C126.888 12.4795 126.333 12.2641 125.869 11.8334C125.413 11.3943 125.185 10.8725 125.185 10.2678C125.185 9.65483 125.413 9.13297 125.869 8.70223C126.333 8.26321 126.888 8.0437 127.534 8.0437C128.18 8.0437 128.731 8.26321 129.186 8.70223C129.65 9.13297 129.882 9.65483 129.882 10.2678C129.882 10.8725 129.65 11.3943 129.186 11.8334C128.731 12.2641 128.18 12.4795 127.534 12.4795ZM141.354 15.4242V18.4063H130.569V15.4242H141.354ZM133.526 34.5092V13.2126C133.526 12.0197 133.787 11.0299 134.309 10.2429C134.831 9.44774 135.523 8.85547 136.384 8.46615C137.245 8.06855 138.181 7.86975 139.192 7.86975C139.938 7.86975 140.575 7.93187 141.106 8.05612C141.636 8.17209 142.029 8.27978 142.286 8.37918L141.416 11.3861C141.242 11.3364 141.019 11.2784 140.745 11.2121C140.472 11.1376 140.141 11.1003 139.751 11.1003C138.848 11.1003 138.202 11.3239 137.813 11.7712C137.432 12.2185 137.241 12.8647 137.241 13.7096V34.5092H133.526Z" fill="white"/>
</svg>
