<svg width="66" height="66" viewBox="0 0 66 66" fill="none" xmlns="http://www.w3.org/2000/svg">
<path d="M64.6565 16.5761C64.6565 11.124 64.6565 8.3979 63.5954 6.31545C62.6621 4.48367 61.1728 2.9944 59.341 2.06106C57.2586 1 54.5325 1 49.0803 1H21.8221C16.3699 1 13.6439 1 11.5614 2.06106C9.72964 2.9944 8.24036 4.48367 7.30703 6.31545C6.24597 8.3979 6.24597 11.124 6.24597 16.5761V34.0993C6.24597 39.5514 6.24597 42.2775 7.30703 44.36C8.24036 46.1917 9.72964 47.681 11.5614 48.6144C13.6439 49.6754 16.3699 49.6754 21.8221 49.6754H42.9675C44.9926 49.6754 46.0051 49.6754 46.9736 49.8742C47.8329 50.0505 48.6643 50.3422 49.4454 50.7413C50.3259 51.1911 51.1165 51.8236 52.6978 53.0886L60.4387 59.2813C61.7889 60.3615 62.464 60.9016 63.0322 60.9022C63.5263 60.9027 63.9938 60.6781 64.302 60.2919C64.6565 59.8479 64.6565 58.9833 64.6565 57.2542V16.5761Z" fill="#DEDEDE"/>
<path d="M61.4105 19.8188C61.4105 14.3667 61.4105 11.6406 60.3494 9.55812C59.4161 7.72635 57.9268 6.23707 56.095 5.30374C54.0126 4.24268 51.2865 4.24268 45.8344 4.24268H18.5761C13.124 4.24268 10.3979 4.24268 8.31544 5.30374C6.48367 6.23707 4.99439 7.72635 4.06106 9.55812C3 11.6406 3 14.3667 3 19.8188V37.342C3 42.7941 3 45.5202 4.06106 47.6026C4.99439 49.4344 6.48367 50.9237 8.31544 51.857C10.3979 52.9181 13.124 52.9181 18.5761 52.9181H39.7215C41.7466 52.9181 42.7591 52.9181 43.7276 53.1169C44.5869 53.2932 45.4184 53.5849 46.1995 53.9839C47.0799 54.4337 47.8706 55.0663 49.4519 56.3313L57.1927 62.524C58.543 63.6042 59.2181 64.1443 59.7862 64.1449C60.2803 64.1454 60.7478 63.9207 61.056 63.5346C61.4105 63.0905 61.4105 62.226 61.4105 60.4969V19.8188Z" fill="#0E0EAF" stroke="white" stroke-width="2.07702" stroke-linecap="round" stroke-linejoin="round"/>
<path d="M24.9373 28.6387L29.2848 32.9862L37.9798 24.2912M45.9502 28.6387C45.9502 36.6422 39.462 43.1303 31.4585 43.1303C23.455 43.1303 16.9668 36.6422 16.9668 28.6387C16.9668 20.6351 23.455 14.147 31.4585 14.147C39.462 14.147 45.9502 20.6351 45.9502 28.6387Z" stroke="#DEDEDE" stroke-width="3.11011" stroke-linecap="round" stroke-linejoin="round"/>
</svg>
